<svg xmlns="http://www.w3.org/2000/svg" viewBox="0 0 542 666.07"><defs><style>.cls-1{fill:none;stroke:#112231;stroke-linecap:round;stroke-linejoin:round;stroke-width:34px;}.cls-2{fill:#f9b916;}</style></defs><title>customer focused_1</title><g id="Layer_2" data-name="Layer 2"><g id="Layer_1-2" data-name="Layer 1"><circle id="_Path_" data-name=" Path " class="cls-1" cx="270.98" cy="146.62" r="129.62"/><path class="cls-1" d="M17,649.07H525C504.6,462.85,398.64,320.94,271,320.94S37.36,462.86,17,649.07"/><path class="cls-2" d="M98,600.35a9.7,9.7,0,0,0-9,0l-7.17,3.77,1.37-8a9.7,9.7,0,0,0-2.79-8.58l-5.8-5.65,8-1.17a9.7,9.7,0,0,0,7.31-5.3l3.58-7.26,3.58,7.26a9.67,9.67,0,0,0,7.3,5.3l8,1.17-5.76,5.65a9.66,9.66,0,0,0-2.82,8.58l1.36,8Z"/><path class="cls-2" d="M93.52,583.6a17.61,17.61,0,0,0,4.22,3.1,17.7,17.7,0,0,0-1.62,5,17.56,17.56,0,0,0-5.22,0,17.06,17.06,0,0,0-1.61-5,17.54,17.54,0,0,0,4.23-3.07m0-30.65a1.91,1.91,0,0,0-1.7,1.07l-8.88,18a1.89,1.89,0,0,1-1.43,1l-19.83,2.88a1.91,1.91,0,0,0-1.06,3.25l14.38,14a1.9,1.9,0,0,1,.56,1.69L72.17,614.6a1.9,1.9,0,0,0,1.54,2.2,1.84,1.84,0,0,0,1.22-.19l17.74-9.32a1.91,1.91,0,0,1,1.77,0l17.73,9.32a1.9,1.9,0,0,0,2.57-.78,2,2,0,0,0,.2-1.23l-3.39-19.77a1.87,1.87,0,0,1,.56-1.69l14.29-14a1.91,1.91,0,0,0-1.05-3.25L105.5,573a1.89,1.89,0,0,1-1.41-1l-8.87-18a1.88,1.88,0,0,0-1.7-1.07Z"/><path class="cls-2" d="M186.74,600.35a9.7,9.7,0,0,0-9,0l-7.17,3.77,1.37-8a9.68,9.68,0,0,0-2.79-8.58l-5.79-5.65,8-1.17a9.67,9.67,0,0,0,7.3-5.3l3.58-7.26,3.58,7.26a9.72,9.72,0,0,0,7.31,5.3l8,1.17-5.8,5.65a9.68,9.68,0,0,0-2.79,8.58l1.37,8Z"/><path class="cls-2" d="M182.23,583.61a17.38,17.38,0,0,0,4.22,3.06,17.75,17.75,0,0,0-1.61,5,17.56,17.56,0,0,0-5.22,0,17.45,17.45,0,0,0-1.62-5,17.24,17.24,0,0,0,4.23-3.06m0-30.65a1.9,1.9,0,0,0-1.7,1.06l-8.87,18a1.92,1.92,0,0,1-1.44,1l-19.82,2.88a1.9,1.9,0,0,0-1.06,3.25l14.35,14a1.87,1.87,0,0,1,.56,1.69l-3.39,19.77a1.9,1.9,0,0,0,1.54,2.2,1.88,1.88,0,0,0,1.23-.19l17.73-9.32a1.91,1.91,0,0,1,1.77,0l17.73,9.32a1.91,1.91,0,0,0,2.57-.78,1.88,1.88,0,0,0,.19-1.23l-3.39-19.77a1.9,1.9,0,0,1,.57-1.69l14.35-14a1.91,1.91,0,0,0-1.06-3.25l-19.83-2.88a1.89,1.89,0,0,1-1.43-1l-8.87-18a1.91,1.91,0,0,0-1.7-1.07Z"/><path class="cls-2" d="M275.46,600.35a9.7,9.7,0,0,0-9,0l-7.17,3.77,1.37-8a9.68,9.68,0,0,0-2.79-8.58l-5.8-5.65,8-1.17a9.68,9.68,0,0,0,7.31-5.3l3.59-7.27,3.58,7.26a9.71,9.71,0,0,0,7.31,5.31l8,1.16-5.8,5.65a9.7,9.7,0,0,0-2.79,8.59l1.37,8Z"/><path class="cls-2" d="M270.94,583.6a17.54,17.54,0,0,0,4.23,3.07,17.39,17.39,0,0,0-1.62,5,17.56,17.56,0,0,0-5.22,0,17.68,17.68,0,0,0-1.61-5,17.69,17.69,0,0,0,4.22-3.07m0-30.64a1.85,1.85,0,0,0-1.69,1.06l-8.86,18a1.89,1.89,0,0,1-1.43,1l-19.83,2.88a1.91,1.91,0,0,0-1.06,3.25l14.35,14a1.9,1.9,0,0,1,.57,1.69l-3.39,19.77a1.9,1.9,0,0,0,1.54,2.2,1.85,1.85,0,0,0,1.22-.19l17.73-9.32a1.91,1.91,0,0,1,1.77,0l17.72,9.26a1.91,1.91,0,0,0,2.77-2L289,594.8a1.89,1.89,0,0,1,.56-1.7l14.35-14a1.9,1.9,0,0,0-1.06-3.25L283,573a1.91,1.91,0,0,1-1.43-1l-8.87-18a1.87,1.87,0,0,0-1.69-1.06Z"/><path class="cls-2" d="M349.38,596.14a9.7,9.7,0,0,0-2.79-8.59l-5.8-5.65,8-1.16a9.69,9.69,0,0,0,7.31-5.31l3.58-7.26,3.58,7.26a9.69,9.69,0,0,0,7.31,5.31l8,1.16-5.8,5.65a9.7,9.7,0,0,0-2.79,8.59l1.37,8-7.17-3.76a9.7,9.7,0,0,0-9,0L348,604.11Z"/><path class="cls-2" d="M359.69,583.61a17.38,17.38,0,0,0,4.22,3.06,17.75,17.75,0,0,0-1.61,5,17.56,17.56,0,0,0-5.22,0,17.26,17.26,0,0,0-1.62-4.94,17.54,17.54,0,0,0,4.23-3.07m0-30.65a1.91,1.91,0,0,0-1.7,1.07l-8.88,18a1.89,1.89,0,0,1-1.43,1l-19.83,2.88a1.91,1.91,0,0,0-1.06,3.25l14.35,14a1.9,1.9,0,0,1,.57,1.69l-3.39,19.77a1.9,1.9,0,0,0,1.54,2.2,1.84,1.84,0,0,0,1.22-.19l17.73-9.32a1.87,1.87,0,0,1,1.78,0l17.73,9.32a1.91,1.91,0,0,0,2.57-.78,1.88,1.88,0,0,0,.19-1.23l-3.39-19.77a1.9,1.9,0,0,1,.57-1.69l14.35-14a1.91,1.91,0,0,0-1.06-3.25l-19.83-2.88a1.91,1.91,0,0,1-1.43-1l-8.87-18a1.89,1.89,0,0,0-1.7-1.07Z"/><path class="cls-2" d="M438.11,596.14a9.72,9.72,0,0,0-2.79-8.59l-5.8-5.65,8-1.16a9.71,9.71,0,0,0,7.31-5.31l3.58-7.26,3.58,7.26a9.68,9.68,0,0,0,7.3,5.31l8,1.16-5.79,5.65a9.7,9.7,0,0,0-2.79,8.59l1.37,8-7.17-3.76a9.7,9.7,0,0,0-9,0l-7.17,3.76Z"/><path class="cls-2" d="M448.42,583.61a17.38,17.38,0,0,0,4.22,3.06,17.75,17.75,0,0,0-1.61,5,17.56,17.56,0,0,0-5.22,0,17.57,17.57,0,0,0-1.62-4.94,17.54,17.54,0,0,0,4.23-3.07m0-30.65a1.91,1.91,0,0,0-1.7,1.07l-8.88,18a1.89,1.89,0,0,1-1.43,1l-19.83,2.88a1.91,1.91,0,0,0-1.06,3.25l14.35,14a1.9,1.9,0,0,1,.57,1.69l-3.39,19.77a1.89,1.89,0,0,0,1.54,2.2,1.85,1.85,0,0,0,1.22-.19l17.73-9.32a1.87,1.87,0,0,1,1.78,0l17.73,9.32a1.91,1.91,0,0,0,2.57-.78,1.88,1.88,0,0,0,.19-1.23l-3.39-19.77a1.9,1.9,0,0,1,.57-1.69l14.35-14a1.91,1.91,0,0,0-1.06-3.25l-19.83-2.88a1.89,1.89,0,0,1-1.43-1l-8.87-18a1.91,1.91,0,0,0-1.7-1.07Z"/></g></g></svg>