<svg xmlns="http://www.w3.org/2000/svg" viewBox="0 0 543.2 674.04"><defs><style>.cls-1{fill:#112231;}.cls-2{fill:#f9b916;}.cls-3{fill:none;}</style></defs><title>proven</title><g id="Layer_2" data-name="Layer 2"><g id="Layer_7" data-name="Layer 7"><path class="cls-1" d="M523.94,0H19.08a17,17,0,0,0-17,17A397.38,397.38,0,0,0,21.2,139.86a45.08,45.08,0,0,1,34.07-5.63A359,359,0,0,1,36.47,34H506.55c-7,155.64-109.76,279.56-235,279.56-75.69,0-143.16-45.24-186.25-115.38a45.12,45.12,0,0,1-26,22.57,321.68,321.68,0,0,0,20.56,28.63C104.43,280,133.22,304.09,165.35,321a239.22,239.22,0,0,0,29.05,12.9,225,225,0,0,0,30,8.69,224.14,224.14,0,0,0,94.11,0,228,228,0,0,0,30-8.69A238.73,238.73,0,0,0,377.67,321c32.13-16.88,60.92-41,85.57-71.59,50.1-62.23,77.7-144.76,77.7-232.38A17,17,0,0,0,523.94,0Z"/><path class="cls-1" d="M335.43,507H207.58a17,17,0,0,1-17-17V344.61a17,17,0,0,1,34,0V473h93.85V344.61a17,17,0,0,1,34,0V490A17,17,0,0,1,335.43,507Z"/><path class="cls-1" d="M450,473H90a17,17,0,0,0-17,17V657a17,17,0,0,0,17,17H450a17,17,0,0,0,17-17V490A17,17,0,0,0,450,473ZM433,640H107V507H433Z"/><path class="cls-2" d="M273.52,83.95l15.7,31.81a3.37,3.37,0,0,0,2.54,1.84l35.1,5.1a3.37,3.37,0,0,1,1.87,5.75l-25.4,24.76a3.37,3.37,0,0,0-1,3l6,35a3.37,3.37,0,0,1-4.89,3.55l-31.39-16.5a3.37,3.37,0,0,0-3.13,0l-31.39,16.5a3.37,3.37,0,0,1-4.89-3.55l6-35a3.37,3.37,0,0,0-1-3l-25.4-24.76a3.37,3.37,0,0,1,1.87-5.75l35.1-5.1a3.37,3.37,0,0,0,2.54-1.84l15.7-31.81A3.37,3.37,0,0,1,273.52,83.95Z"/><path class="cls-3" d="M328.72,128.44a3.36,3.36,0,0,0-1.87-5.74l-35.1-5.1a3.37,3.37,0,0,1-2.53-1.85L273.52,84a3.37,3.37,0,0,0-6,0l-15.7,31.8a3.37,3.37,0,0,1-2.53,1.85l-35.1,5.1a3.36,3.36,0,0,0-1.87,5.74l25.4,24.76a3.4,3.4,0,0,1,1,3l-6,35a3.37,3.37,0,0,0,4.89,3.55l31.39-16.51a3.43,3.43,0,0,1,3.14,0l31.39,16.51a3.38,3.38,0,0,0,1.57.39,3.26,3.26,0,0,0,1.28-.26,3.1,3.1,0,0,0,.57-.3,2.52,2.52,0,0,0,.26-.19l.24-.22a3.3,3.3,0,0,0,1-3l-6-35a3.4,3.4,0,0,1,1-3Zm-53.6,22.11a30.68,30.68,0,0,0-9.24,0,31,31,0,0,0-2.86-8.8,30.72,30.72,0,0,0,7.48-5.43,31,31,0,0,0,7.48,5.43A31,31,0,0,0,275.12,150.55Z"/><path class="cls-2" d="M396.41,82.95l7.33,14.85a1.57,1.57,0,0,0,1.18.86L421.31,101a1.57,1.57,0,0,1,.87,2.68l-11.86,11.56a1.57,1.57,0,0,0-.45,1.39l2.8,16.32a1.57,1.57,0,0,1-2.28,1.66l-14.66-7.71a1.57,1.57,0,0,0-1.46,0l-14.66,7.71a1.57,1.57,0,0,1-2.28-1.66l2.8-16.32a1.57,1.57,0,0,0-.45-1.39l-11.86-11.56a1.57,1.57,0,0,1,.87-2.68l16.39-2.38a1.57,1.57,0,0,0,1.18-.86l7.33-14.85A1.57,1.57,0,0,1,396.41,82.95Z"/><path class="cls-3" d="M422.18,103.72a1.57,1.57,0,0,0-.87-2.68l-16.39-2.38a1.59,1.59,0,0,1-1.18-.86L396.41,83a1.7,1.7,0,0,0-.26-.38,1.49,1.49,0,0,0-.34-.28,1.66,1.66,0,0,0-.6-.21h-.42a1.66,1.66,0,0,0-.6.21,2.2,2.2,0,0,0-.34.28,1.7,1.7,0,0,0-.26.38L386.26,97.8a1.59,1.59,0,0,1-1.18.86L368.69,101a1.57,1.57,0,0,0-.87,2.68l11.86,11.56a1.56,1.56,0,0,1,.45,1.39L377.33,133a1.57,1.57,0,0,0,1.55,1.84,1.64,1.64,0,0,0,.73-.18l14.66-7.71a1.57,1.57,0,0,1,1.46,0l14.66,7.71a1.64,1.64,0,0,0,.73.18,1.57,1.57,0,0,0,1.55-1.84l-2.8-16.32a1.56,1.56,0,0,1,.45-1.39Z"/><path class="cls-2" d="M147.41,82.95l7.33,14.85a1.57,1.57,0,0,0,1.18.86L172.31,101a1.57,1.57,0,0,1,.87,2.68l-11.86,11.56a1.57,1.57,0,0,0-.45,1.39l2.8,16.32a1.57,1.57,0,0,1-2.28,1.66l-14.66-7.71a1.57,1.57,0,0,0-1.46,0l-14.66,7.71a1.57,1.57,0,0,1-2.28-1.66l2.8-16.32a1.57,1.57,0,0,0-.45-1.39l-11.86-11.56a1.57,1.57,0,0,1,.87-2.68l16.39-2.38a1.57,1.57,0,0,0,1.18-.86l7.33-14.85A1.57,1.57,0,0,1,147.41,82.95Z"/><path class="cls-3" d="M173.18,103.72a1.57,1.57,0,0,0-.87-2.68l-16.39-2.38a1.59,1.59,0,0,1-1.18-.86L147.41,83a1.7,1.7,0,0,0-.26-.38,1.49,1.49,0,0,0-.34-.28,1.66,1.66,0,0,0-.6-.21h-.42a1.66,1.66,0,0,0-.6.21,2.2,2.2,0,0,0-.34.28,1.7,1.7,0,0,0-.26.38L137.26,97.8a1.59,1.59,0,0,1-1.18.86L119.69,101a1.57,1.57,0,0,0-.87,2.68l11.86,11.56a1.56,1.56,0,0,1,.45,1.39L128.33,133a1.57,1.57,0,0,0,1.55,1.84,1.64,1.64,0,0,0,.73-.18l14.66-7.71a1.57,1.57,0,0,1,1.46,0l14.66,7.71a1.64,1.64,0,0,0,.73.18,1.57,1.57,0,0,0,1.55-1.84l-2.8-16.32a1.56,1.56,0,0,1,.45-1.39Z"/><path class="cls-1" d="M85.26,198.18a45.12,45.12,0,0,1-26,22.57,352.58,352.58,0,0,1-38-80.89,45.08,45.08,0,0,1,34.07-5.63A320.44,320.44,0,0,0,85.26,198.18Z"/><path class="cls-2" d="M59.21,220.75a45,45,0,0,1-38-80.89A352.58,352.58,0,0,0,59.21,220.75Z"/><path class="cls-2" d="M484,220.75a45,45,0,0,0,38-80.89A352.58,352.58,0,0,1,484,220.75Z"/></g></g></svg>